# xmcd
#
# Track frame offsets: 
#        150
#        17034
#        33868
#        44070
#        54978
#        68034
#        84299
#        95922
#        111901
#        123651
#
# Disc length: 1810 seconds
#
# Revision: 0
# Processed by: cddbd v1.5.2PL0 Copyright (c) Steve Scherf et al.
# Submitted via: ExactAudioCopyFreeDBPlugin 1.0
#
DISCID=8407100a
DTITLE=Dale Watson and Ray Benson - Dale and Ray
DYEAR=2017
DGENRE=Country
TTITLE0=The Ballad Of Dale And Ray
TTITLE1=Feelin' Haggard
TTITLE2=I Wish You Knew
TTITLE3=Bus' Breakdown
TTITLE4=Write Your Own Songs
TTITLE5=Cryin' To Cryin' Time Again
TTITLE6=Forget About Tomorrow Today
TTITLE7=A Hangover Ago
TTITLE8=Nobody's Ever Down In Texas
TTITLE9=Sittin' And Thinkin' About You
EXTD=
EXTT0=
EXTT1=
EXTT2=
EXTT3=
EXTT4=
EXTT5=
EXTT6=
EXTT7=
EXTT8=
EXTT9=
PLAYORDER=
